<svg xmlns="http://www.w3.org/2000/svg" xmlns:xlink="http://www.w3.org/1999/xlink" width="287" height="261" viewBox="0 0 287 261"><defs><linearGradient id="a" y1="0.5" x2="1" y2="0.5" gradientUnits="objectBoundingBox"><stop offset="0" stop-color="#2575fc"/><stop offset="1" stop-color="#6a11cb"/></linearGradient></defs><g transform="translate(-195 -121)"><path d="M85,261q0-5.026.2-10H372V509.438A253.028,253.028,0,0,1,336,512C197.376,512,85,399.623,85,261Z" transform="translate(110 -130)" fill="url(#a)"/><g transform="translate(287 181)"><path d="M40.009,2.95A1.95,1.95,0,0,0,38.058,1h-7.8a1.95,1.95,0,0,0-1.95,1.95V5.827a27.464,27.464,0,0,1-15.6,4.925H4.9a3.9,3.9,0,0,0-3.9,3.9v7.8a3.9,3.9,0,0,0,3.9,3.9h.544L8.9,36.724a1.951,1.951,0,0,0,1.851,1.334h7.8A1.951,1.951,0,0,0,20.4,35.492l-2.9-8.689a27.493,27.493,0,0,1,10.8,4.478v2.877a1.95,1.95,0,0,0,1.95,1.95h7.8a1.95,1.95,0,0,0,1.95-1.95ZM4.9,14.653h7.8a30.677,30.677,0,0,0,3.9-.275v8.35a31.037,31.037,0,0,0-3.9-.273H4.9Zm10.948,19.5h-3.69l-2.6-7.8H12.7c.185,0,.369.02.552.023ZM20.5,23.469v-9.83a31.5,31.5,0,0,0,7.8-3.2V26.67A31.5,31.5,0,0,0,20.5,23.469Zm15.6,8.738h-3.9V4.9h3.9Z" fill="#fff"/><path d="M41.472,42.472l-3.9,3.9A1.942,1.942,0,0,0,37,47.752v3.9a1.95,1.95,0,0,0,1.95,1.95h6.994l3.329,3.329a1.945,1.945,0,0,0,1.379.571H56.5a1.945,1.945,0,0,0,1.379-.571l5.851-5.851a1.942,1.942,0,0,0,.571-1.379V43.851a1.942,1.942,0,0,0-.571-1.379l-3.9-3.9A1.945,1.945,0,0,0,58.455,38H52.6a1.945,1.945,0,0,0-1.379.571L47.9,41.9H42.851A1.945,1.945,0,0,0,41.472,42.472ZM48.7,45.8a1.945,1.945,0,0,0,1.379-.571L53.411,41.9h4.236l2.758,2.758V48.9L55.7,53.6H51.461l-3.329-3.329a1.945,1.945,0,0,0-1.379-.571H40.9V48.56L43.659,45.8Z" transform="translate(33.52 34.506)" fill="#fff"/><path d="M61.959,21a40.959,40.959,0,1,0,40.959,40.959A41.005,41.005,0,0,0,61.959,21ZM99.018,61.959a36.873,36.873,0,0,1-.509,5.851H97.067a1.945,1.945,0,0,0-1.379.571l-3.329,3.329H87.315a1.945,1.945,0,0,0-1.379.571l-5.851,5.851a1.942,1.942,0,0,0-.571,1.379v5.851h-3.9a1.945,1.945,0,0,0-1.379.571L70.9,89.265H65.86a1.945,1.945,0,0,0-1.379.571l-3.9,3.9a1.942,1.942,0,0,0-.571,1.379v3.8a36.745,36.745,0,0,1-13.653-3.394v-7.4l5.28-5.28a1.942,1.942,0,0,0,.571-1.379V75.612a1.942,1.942,0,0,0-.571-1.379l-5.851-5.851a1.945,1.945,0,0,0-1.379-.571H39.361l-5.28-5.28a1.945,1.945,0,0,0-1.379-.571H24.9a37.03,37.03,0,0,1,.593-6.4l1.929,1.929a1.945,1.945,0,0,0,1.379.571h7.8a1.945,1.945,0,0,0,1.379-.571l5.28-5.28h6.994a1.945,1.945,0,0,0,1.379-.571l5.851-5.851a1.942,1.942,0,0,0,.571-1.379V38.554a1.942,1.942,0,0,0-.571-1.379l-5.28-5.28V26.247A36.931,36.931,0,0,1,99.018,61.959ZM48.306,27.54V32.7a1.942,1.942,0,0,0,.571,1.379l5.28,5.28V43.6l-4.708,4.708H42.455a1.945,1.945,0,0,0-1.379.571l-5.28,5.28H29.609l-3.074-3.074A37.211,37.211,0,0,1,48.306,27.54ZM25.11,65.86h6.784l5.28,5.28a1.953,1.953,0,0,0,1.381.571H43.6l4.708,4.708v4.236l-5.28,5.28a1.942,1.942,0,0,0-.571,1.379v6.1A37.072,37.072,0,0,1,25.11,65.86Zm38.8,33.058V95.924l2.758-2.758h5.044a1.945,1.945,0,0,0,1.379-.571l3.329-3.329h5.044a1.95,1.95,0,0,0,1.95-1.95V80.321l4.708-4.708h5.044a1.945,1.945,0,0,0,1.379-.571L97.6,71.984A37.076,37.076,0,0,1,63.91,98.918Z" transform="translate(18.082 18.082)" fill="#fff"/><path d="M18,46h1.95v3.9H18Z" transform="translate(15.899 42.074)" fill="#fff"/><path d="M10.8,46h3.511v3.9H10.8Z" transform="translate(9.314 42.074)" fill="#fff"/><path d="M14.4,46h3.511v3.9H14.4Z" transform="translate(12.529 42.074)" fill="#fff"/><path d="M7,47.95A1.95,1.95,0,0,0,8.95,49.9H10.9V46H7Z" transform="translate(5.703 42.074)" fill="#fff"/><path d="M7,41.818h3.9V45.9H7Z" transform="translate(5.703 38.163)" fill="#fff"/><path d="M7,37.637h3.9v4.078H7Z" transform="translate(5.703 34.254)" fill="#fff"/><path d="M7,25.091h3.9v4.078H7Z" transform="translate(5.703 22.524)" fill="#fff"/><path d="M7,29.272h3.9V33.35H7Z" transform="translate(5.703 26.433)" fill="#fff"/><path d="M7,33.455h3.9v4.078H7Z" transform="translate(5.703 30.344)" fill="#fff"/><path d="M7,22h3.9v1.95H7Z" transform="translate(5.703 19.64)" fill="#fff"/><path d="M23,8h1.95v3.9H23Z" transform="translate(20.575 6.653)" fill="#fff"/><path d="M37.364,8h3.723v3.9H37.364Z" transform="translate(34.001 6.653)" fill="#fff"/><path d="M41.182,8h3.723v3.9H41.182Z" transform="translate(37.571 6.653)" fill="#fff"/><path d="M25.909,8h3.723v3.9H25.909Z" transform="translate(23.29 6.653)" fill="#fff"/><path d="M33.545,8h3.723v3.9H33.545Z" transform="translate(30.43 6.653)" fill="#fff"/><path d="M29.728,8h3.723v3.9H29.728Z" transform="translate(26.861 6.653)" fill="#fff"/><path d="M48.9,9.95A1.95,1.95,0,0,0,46.95,8H45v3.9h3.9Z" transform="translate(41.139 6.653)" fill="#fff"/><path d="M45,11.6h3.9v3.121H45Z" transform="translate(41.139 10.075)" fill="#fff"/><path d="M45,14.8h3.9v3.121H45Z" transform="translate(41.139 12.904)" fill="#fff"/><path d="M45,18h3.9v1.95H45Z" transform="translate(41.139 15.899)" fill="#fff"/></g></g></svg>