<svg xmlns="http://www.w3.org/2000/svg" xmlns:xlink="http://www.w3.org/1999/xlink" width="287" height="261" viewBox="0 0 287 261"><defs><linearGradient id="a" x1="-0.261" x2="1.05" y2="1" gradientUnits="objectBoundingBox"><stop offset="0" stop-color="#2575fc"/><stop offset="1" stop-color="#6a11cb" stop-opacity="0.502"/></linearGradient></defs><g transform="translate(-1195 -121)"><path d="M85,261q0-5.026.2-10H372V509.438A253.028,253.028,0,0,1,336,512C197.376,512,85,399.623,85,261Z" transform="translate(1110 -130)" fill="url(#a)"/><g transform="translate(1287 182)"><path d="M38.3,105.263h4.2v8.421A6.311,6.311,0,0,0,48.813,120h79.865a8.414,8.414,0,0,0,8.407-8.421V2.105A2.1,2.1,0,0,0,134.984,0H105.56a2.1,2.1,0,0,0-1.486.617l-9.893,9.91H65.627a6.311,6.311,0,0,0-6.305,6.316V29.474A18.953,18.953,0,0,0,40.406,48.421v6.316H38.3A6.311,6.311,0,0,0,32,61.053V98.947a6.311,6.311,0,0,0,6.305,6.316ZM63.525,16.842a2.1,2.1,0,0,1,2.1-2.105H95.051a2.1,2.1,0,0,0,1.486-.617l9.893-9.91h26.452V111.579a4.2,4.2,0,1,1-8.407,0V63.158a6.311,6.311,0,0,0-6.305-6.316h-8.407v4.211h8.407a2.1,2.1,0,0,1,2.1,2.105v48.421a8.343,8.343,0,0,0,1.169,4.211H48.813a2.1,2.1,0,0,1-2.1-2.105v-8.421H80.339a6.311,6.311,0,0,0,6.305-6.316H105.56V94.737H86.644V90.526H105.56a2.1,2.1,0,0,0,1.486-.617l6.305-6.316a2.107,2.107,0,0,0,.616-1.488V73.684h-4.2v7.549l-5.074,5.082H86.644V82.105h16.814A2.1,2.1,0,0,0,105.56,80V53.5l11.995-12.015A2.107,2.107,0,0,0,118.17,40V31.579h2.1a2.1,2.1,0,0,0,2.1-2.105V21.052a2.1,2.1,0,0,0-2.1-2.105h-8.407a2.1,2.1,0,0,0-2.1,2.105v8.421a2.1,2.1,0,0,0,2.1,2.105h2.1v7.549L101.972,51.143a2.107,2.107,0,0,0-.616,1.488V77.895H86.644V73.684h8.407a2.1,2.1,0,0,0,2.1-2.105V40h2.1a2.1,2.1,0,0,0,2.1-2.105V29.474a2.1,2.1,0,0,0-2.1-2.105H90.848a2.1,2.1,0,0,0-2.1,2.105v8.421A2.1,2.1,0,0,0,90.848,40h2.1V69.474H86.644V61.052a6.311,6.311,0,0,0-6.305-6.316h-2.1V48.421A18.961,18.961,0,0,0,63.525,29.962Zm50.441,10.526V23.158h4.2v4.211ZM92.949,35.789V31.579h4.2v4.211ZM44.61,48.421a14.712,14.712,0,1,1,29.424,0v6.316h-4.2V48.421a10.509,10.509,0,1,0-21.017,0v6.316h-4.2Zm21.017,6.316H53.017V48.421a6.305,6.305,0,1,1,12.61,0ZM36.2,61.053a2.1,2.1,0,0,1,2.1-2.105H80.339a2.1,2.1,0,0,1,2.1,2.105V98.947a2.1,2.1,0,0,1-2.1,2.105H38.3a2.1,2.1,0,0,1-2.1-2.105Zm0,0" transform="translate(-23.542)" fill="#fff"/><path d="M328,360h4.229v4.229H328Zm0,0" transform="translate(-241.774 -265.278)" fill="#fff"/><path d="M328,248h4.229v4.229H328Zm0,0" transform="translate(-241.774 -182.747)" fill="#fff"/><path d="M100.218,266.956v4.271a6.343,6.343,0,0,0,12.686,0v-4.273a10.571,10.571,0,1,0-12.686,0Zm.2-10.035a6.293,6.293,0,0,1,4.594-4.541,6.921,6.921,0,0,1,1.562-.182,6.244,6.244,0,0,1,3.928,1.372A6.306,6.306,0,0,1,109.727,264a2.111,2.111,0,0,0-1.057,1.826v5.4a2.114,2.114,0,1,1-4.229,0v-5.4A2.116,2.116,0,0,0,103.384,264,6.294,6.294,0,0,1,100.418,256.921Zm0,0" transform="translate(-70.775 -182.797)" fill="#fff"/><path d="M384,32h4.229v4.229H384Zm0,0" transform="translate(-283.143 -23.543)" fill="#fff"/><path d="M352,32h4.229v4.229H352Zm0,0" transform="translate(-259.465 -23.543)" fill="#fff"/><path d="M0,240H4.229v35.943H0Zm0,0" transform="translate(0 -176.957)" fill="#fff"/><path d="M448,32h4.229V72.172H448Zm0,0" transform="translate(-330.229 -23.543)" fill="#fff"/><path d="M448,200h4.229v4.229H448Zm0,0" transform="translate(-330.229 -147.377)" fill="#fff"/></g></g></svg>