<svg xmlns="http://www.w3.org/2000/svg" width="110" height="120" viewBox="0 0 110 120"><g transform="translate(-22.793)"><g transform="translate(22.793)"><path d="M129.249,19.091A15.635,15.635,0,0,1,113.583,3.522V0H42V3.522A15.635,15.635,0,0,1,26.337,19.091H22.793V42.514a82.258,82.258,0,0,0,53.758,77.025l1.242.462,1.242-.462a82.305,82.305,0,0,0,39-30.155,81.511,81.511,0,0,0,14.755-46.869V19.091ZM125.7,42.514h0a74.528,74.528,0,0,1-13.491,42.854,75.226,75.226,0,0,1-34.42,27.1A75.2,75.2,0,0,1,29.881,42.514V25.861A22.74,22.74,0,0,0,48.816,7.044H106.77A22.74,22.74,0,0,0,125.7,25.861V42.514Z" transform="translate(-22.793)" fill="#005da1"/></g><g transform="translate(46.901 32.892)"><path d="M171.909,141.187l-23.491,23.491-8.18-8.18-15.056,15.056,23.236,23.236,38.547-38.547Zm-36.69,30.368,5.019-5.019,8.18,8.18,23.491-23.491,5.019,5.019-28.51,28.51Z" transform="translate(-125.182 -141.187)" fill="#005da1"/></g></g></svg>