<svg xmlns="http://www.w3.org/2000/svg" xmlns:xlink="http://www.w3.org/1999/xlink" width="287" height="261" viewBox="0 0 287 261"><defs><linearGradient id="a" y1="0.5" x2="1" y2="0.5" gradientUnits="objectBoundingBox"><stop offset="0" stop-color="#2575fc"/><stop offset="1" stop-color="#6a11cb"/></linearGradient></defs><g transform="translate(-195 -1229)"><path d="M85,261q0-5.026.2-10H372V509.438A253.028,253.028,0,0,1,336,512C197.376,512,85,399.623,85,261Z" transform="translate(110 978)" fill="url(#a)"/><g transform="translate(213.838 1278)"><path d="M139.577,45.791h27.491a1.592,1.592,0,1,0,0-3.185H139.577a1.592,1.592,0,0,0,0,3.185Z" transform="translate(-34.395 -27.625)" fill="#fff"/><path d="M134.909,83.9h28.73a1.592,1.592,0,1,0,0-3.185h-28.73a1.592,1.592,0,0,0,0,3.185Z" transform="translate(-30.966 -55.62)" fill="#fff"/><path d="M134.9,122.012h63.671a1.592,1.592,0,0,0,0-3.185H134.9a1.592,1.592,0,0,0,0,3.185Z" transform="translate(-30.966 -83.671)" fill="#fff"/><path d="M198.569,160.122a1.592,1.592,0,0,0,0-3.185H134.9a1.592,1.592,0,0,0,0,3.185Z" transform="translate(-30.966 -111.685)" fill="#fff"/><path d="M165.855,109.455a3.458,3.458,0,0,0,2.811,1.446,3.493,3.493,0,0,0,1.386-.288l6.012-2.591a3.472,3.472,0,0,0,1.768-4.668l-2.091-4.437-.458-87.831A6.12,6.12,0,0,0,169.144,5H102.13a6.12,6.12,0,0,0-6.139,6.086v84l-4.424,8.428a3.453,3.453,0,0,0,1.377,4.641l5.708,3.2a3.455,3.455,0,0,0,1.7.447,3.506,3.506,0,0,0,.994-.145,3.449,3.449,0,0,0,2.087-1.71l.618-1.171,2.059,1.708-3.614,4.992a5.516,5.516,0,0,0,5.409,8.686.31.31,0,0,1,0,.031,5.5,5.5,0,0,0,5.432,4.635,5.587,5.587,0,0,0,.961-.084c0,.011,0,.022,0,.033a5.5,5.5,0,0,0,6.39,4.553c0,.01,0,.021,0,.031a5.517,5.517,0,0,0,9.914,2.354l1.145-1.582,2.144,1.7a5.927,5.927,0,0,0,8.3-.628,5.84,5.84,0,0,0,1.392-3.1,5.912,5.912,0,0,0,6.158-1.781,5.839,5.839,0,0,0,1.392-3.095,5.912,5.912,0,0,0,6.158-1.781,5.84,5.84,0,0,0,1.357-2.888,5.937,5.937,0,0,0,6.632-1.641l.071-.082a5.755,5.755,0,0,0-.6-8.142l-1.3-1.12a12.575,12.575,0,0,0,2.407-2.134Zm9.123-4.523a.293.293,0,0,1-.164.168l-6.012,2.591a.316.316,0,0,1-.41-.147l-.759-1.6a1.6,1.6,0,0,0-.283-.6L153.657,76.458a.274.274,0,0,1-.008-.223.294.294,0,0,1,.172-.169L160,73.644a.314.314,0,0,1,.4.152l14.568,30.919A.275.275,0,0,1,174.978,104.932ZM99.158,11.086a2.943,2.943,0,0,1,2.972-2.907h67.014a2.945,2.945,0,0,1,2.972,2.916l.422,81.026-9.276-19.685a3.485,3.485,0,0,0-4.415-1.753L152.668,73.1a3.472,3.472,0,0,0-1.872,4.719l.645,1.361-.2.083A12.13,12.13,0,0,1,144.8,79l-6.172-1.727a9.772,9.772,0,0,0-5.579.09l-5.957,1.875A9.755,9.755,0,0,0,123.833,81a12.662,12.662,0,0,0-4.88-.465l.433-.82a3.475,3.475,0,0,0-1.273-4.59l-5.674-3.435a3.478,3.478,0,0,0-4.88,1.357l-8.4,16.005Zm1.472,97.376a.3.3,0,0,1-.185.149.316.316,0,0,1-.249-.026l-5.708-3.2a.287.287,0,0,1-.12-.384l15.993-30.465a.3.3,0,0,1,.189-.151.342.342,0,0,1,.09-.012.314.314,0,0,1,.164.047l5.673,3.435a.285.285,0,0,1,.111.379Zm4.955,12.173a2.351,2.351,0,0,1-.532-3.287l5.931-8.191a2.349,2.349,0,1,1,3.808,2.751l-1.608,2.22-4.3,5.938-.025.034a2.356,2.356,0,0,1-3.274.535Zm6.392,4.583a2.347,2.347,0,0,1-.532-3.281l4.3-5.939a2.348,2.348,0,1,1,3.8,2.754l-1.355,1.871-2.915,4.023-.025.034a2.361,2.361,0,0,1-3.28.536Zm6.4,4.587a2.351,2.351,0,0,1-.532-3.288l2.959-4.086a2.349,2.349,0,1,1,3.808,2.751l-1.964,2.712-.971,1.341h0l-.025.034a2.357,2.357,0,0,1-3.275.532Zm9.672,4.047a2.349,2.349,0,1,1-3.811-2.746l1.624-2.242a2.349,2.349,0,1,1,3.808,2.751Zm34.916-15.089-.071.082a2.77,2.77,0,0,1-3.889.3l-2.309-1.985-.01-.01-6.12-5.26A1.587,1.587,0,1,0,148.5,114.3l.032.027.053.045,6.046,5.2a2.69,2.69,0,0,1,.272,3.8,2.759,2.759,0,0,1-3.873.28l-6.121-5.26a1.583,1.583,0,0,0-2.613,1.178v0a1.588,1.588,0,0,0,.554,1.233l4.223,3.628a2.691,2.691,0,0,1,.281,3.813,2.759,2.759,0,0,1-3.873.28l-1.9-1.631,0,0-2.322-1.995a1.587,1.587,0,0,0-2.059,2.415l2.019,1.735.3.26a2.692,2.692,0,0,1,.281,3.814,2.759,2.759,0,0,1-3.873.28l-.047-.039-2.7-2.144a5.5,5.5,0,0,0-5.047-6.491,5.5,5.5,0,0,0-5.059-6.432,5.5,5.5,0,0,0-4.847-6.416,5.517,5.517,0,0,0-9.815-4.6l-.452.623-2.41-2,11.521-21.825a11.6,11.6,0,0,1,4.454-.351,9.834,9.834,0,0,0-.5,1.007l-1.821,4.413c-.467,1.131-.9,2.295-1.28,3.457l-1.817,5.517a1.592,1.592,0,0,0,.862,1.953l.391.174a9.452,9.452,0,0,0,9.094-.7,9.228,9.228,0,0,0,4.122-6.819q.013-.137.024-.277c.087-.41.641-2.713,2.164-2.893l2.544.714a5.829,5.829,0,0,1,2.507,1.452l16.249,15.984.079.072,8.536,7.333a2.567,2.567,0,0,1,.269,3.637Zm-6.708-13.351L140.043,89.466a9,9,0,0,0-3.87-2.242l-2.792-.784a1.514,1.514,0,0,0-.433-.059,5.144,5.144,0,0,0-4.537,2.975,9.274,9.274,0,0,0-.931,2.629,1.558,1.558,0,0,0-.018.157q-.01.146-.024.291a6.06,6.06,0,0,1-2.714,4.471,6.335,6.335,0,0,1-5.122.779l1.34-4.072c.359-1.089.762-2.179,1.2-3.239l1.814-4.4a6.569,6.569,0,0,1,4.085-3.7L134,80.4a6.626,6.626,0,0,1,3.782-.061l6.172,1.726a15.136,15.136,0,0,0,8.1.283,1.57,1.57,0,0,0,.287-.091l.467-.2,11.48,24.216a9.4,9.4,0,0,1-3.364,3.142Z" fill="#fff"/><path d="M142.463,203.895a7.023,7.023,0,0,0,2.99.63,8,8,0,0,0,4.208-1.171,8.549,8.549,0,0,0,2.306-2.281c.1-.139.231-.307.342-.442a7.229,7.229,0,0,0,1.417.984,9.442,9.442,0,0,0,4.26,1.087,9.707,9.707,0,0,0,5.087-1.338,1.592,1.592,0,1,0-1.6-2.752,6.508,6.508,0,0,1-3.414.906,6.244,6.244,0,0,1-2.823-.709,4.271,4.271,0,0,1-.935-.672,2.806,2.806,0,0,0-1.9-.863,3.619,3.619,0,0,0-2.981,1.888,5.63,5.63,0,0,1-1.457,1.5,4.739,4.739,0,0,1-4.136.357,3.086,3.086,0,0,1-1-.787,7.453,7.453,0,0,0,3.425-1.458,8.036,8.036,0,0,0,2.268-2.861,4.041,4.041,0,0,0-.024-3.969,4.277,4.277,0,0,0-2.989-1.757,6.642,6.642,0,0,0-5,1.147,6.406,6.406,0,0,0-2.133,5.185l-.03-.013a1.592,1.592,0,0,0-1.255,2.927,11.594,11.594,0,0,0,1.988.65A7.078,7.078,0,0,0,142.463,203.895Zm.017-10.065a3.258,3.258,0,0,1,1.915-.551,3.636,3.636,0,0,1,.592.047,1.387,1.387,0,0,1,.834.342c.168.261-.347,1.667-1.534,2.6a4.576,4.576,0,0,1-2.691.9A3.893,3.893,0,0,1,142.48,193.83Z" transform="translate(-33.027 -136.067)" fill="#fff"/><path d="M310.418,215.417h-23.9a1.592,1.592,0,1,0,0,3.185h23.9a1.592,1.592,0,1,0,0-3.185Z" transform="translate(-142.827 -154.672)" fill="#fff"/></g></g></svg>