<svg xmlns="http://www.w3.org/2000/svg" xmlns:xlink="http://www.w3.org/1999/xlink" width="287" height="261" viewBox="0 0 287 261"><defs><linearGradient id="a" y1="0.5" x2="1" y2="0.5" gradientUnits="objectBoundingBox"><stop offset="0" stop-color="#2575fc"/><stop offset="1" stop-color="#6a11cb"/></linearGradient></defs><g transform="translate(-695 -1229)"><path d="M85,261q0-5.026.2-10H372V509.438A253.028,253.028,0,0,1,336,512C197.376,512,85,399.623,85,261Z" transform="translate(610 978)" fill="url(#a)"/><g transform="translate(789 1290)"><path d="M112.258,27.292V18.554L93.7,0H38.71V27.1H9.677A9.688,9.688,0,0,0,0,36.774V98.71a9.688,9.688,0,0,0,9.677,9.677H32.9v7.742H25.161V120H94.839v-3.871H87.1v-7.742h23.226A9.688,9.688,0,0,0,120,98.71V36.774A9.7,9.7,0,0,0,112.258,27.292ZM92.9,4.672l14.683,14.683H92.9Zm-50.323-.8H89.032V23.226h19.355V85.161H42.581ZM83.226,116.129H36.774v-7.742H83.226Zm32.9-17.419a5.814,5.814,0,0,1-5.806,5.806H9.677A5.814,5.814,0,0,1,3.871,98.71V96.774H116.129Zm0-5.806H3.871V36.774a5.814,5.814,0,0,1,5.806-5.806H38.71V89.032h73.548V31.324a5.8,5.8,0,0,1,3.871,5.45Z" fill="#fff"/><path d="M59.165,157.582a13.582,13.582,0,1,0-13.582,13.582A13.6,13.6,0,0,0,59.165,157.582ZM47.523,153.7a1.94,1.94,0,1,1-1.94-1.94A1.941,1.941,0,0,1,47.523,153.7Zm-1.94,13.582a9.626,9.626,0,0,1-3.8-.78,3.88,3.88,0,0,1,7.6,0A9.626,9.626,0,0,1,45.582,167.284Zm0-7.761a7.758,7.758,0,0,0-7.09,4.634A9.627,9.627,0,0,1,44.41,148a5.821,5.821,0,1,0,2.344,0,9.627,9.627,0,0,1,5.918,16.157A7.758,7.758,0,0,0,45.582,159.523Z" transform="translate(-24.239 -109.187)" fill="#fff"/><path d="M32,269.582A13.582,13.582,0,1,0,45.582,256,13.6,13.6,0,0,0,32,269.582Zm13.582,9.7a9.627,9.627,0,0,1-3.8-.78,3.88,3.88,0,0,1,7.6,0A9.627,9.627,0,0,1,45.582,279.284Zm1.94-13.582a1.94,1.94,0,1,1-1.94-1.94A1.941,1.941,0,0,1,47.523,265.7ZM44.41,260a5.821,5.821,0,1,0,2.344,0,9.627,9.627,0,0,1,5.918,16.157,7.741,7.741,0,0,0-14.18,0A9.627,9.627,0,0,1,44.41,260Z" transform="translate(-24.239 -194.11)" fill="#fff"/><path d="M227.4,51.714V48H208V67.4h19.4V56.481l6.948-4.963L232.1,48.361Zm-3.881,2.773-3.671,2.621-2.718-2.718-2.744,2.744,5.043,5.043,4.09-2.922v4.269H211.881V51.881h11.642Z" transform="translate(-157.713 -36.358)" fill="#fff"/><path d="M227.4,147.714V144H208v19.4h19.4V152.481l6.948-4.963-2.255-3.157Zm-3.881,2.773-3.671,2.621-2.718-2.718-2.744,2.744,5.043,5.043,4.09-2.922v4.269H211.881V147.881h11.642Z" transform="translate(-157.713 -109.178)" fill="#fff"/><path d="M227.4,243.714V240H208v19.4h19.4V248.481l6.948-4.963-2.255-3.155Zm-3.881,2.773-3.671,2.621-2.718-2.718-2.744,2.744,5.043,5.043,4.09-2.922v4.269H211.881V243.881h11.642Z" transform="translate(-157.713 -181.964)" fill="#fff"/><rect width="24" height="4" transform="translate(76.909 27.08)" fill="#fff"/><rect width="24" height="4" transform="translate(76.909 50.021)" fill="#fff"/><rect width="24" height="3" transform="translate(76.909 73.96)" fill="#fff"/><rect width="24" height="4" transform="translate(76.909 65.979)" fill="#fff"/><rect width="24" height="3" transform="translate(76.909 43.04)" fill="#fff"/><rect width="8" height="4" transform="translate(76.944 19.151)" fill="#fff"/></g></g></svg>