<svg xmlns="http://www.w3.org/2000/svg" xmlns:xlink="http://www.w3.org/1999/xlink" width="287" height="261" viewBox="0 0 287 261"><defs><linearGradient id="a" x1="-0.261" x2="1.05" y2="1" gradientUnits="objectBoundingBox"><stop offset="0" stop-color="#2575fc"/><stop offset="1" stop-color="#6a11cb" stop-opacity="0.502"/></linearGradient></defs><g transform="translate(-695 -703)"><path d="M85,261q0-5.026.2-10H372V509.438A253.028,253.028,0,0,1,336,512C197.376,512,85,399.623,85,261Z" transform="translate(610 452)" fill="url(#a)"/><g transform="translate(784 748.5)"><path d="M101.678,15.5H26.322a26.267,26.267,0,1,0,0,52.535H45.488V89.256l-.936-.783a12.2,12.2,0,0,0-16.135.7,10.488,10.488,0,0,0,.684,15.638l16.386,13.721v13.223a3.746,3.746,0,0,0,3.75,3.742h45a3.746,3.746,0,0,0,3.75-3.742V89.706a11.252,11.252,0,0,0-9.859-11.141l-20.141-2.5V68.034h33.691a26.267,26.267,0,1,0,0-52.534ZM52.988,128.016v-7.484h37.5v7.484ZM87.2,85.993a3.751,3.751,0,0,1,3.286,3.714v23.34H50.6L33.923,99.08a3.026,3.026,0,0,1-.2-4.612,4.667,4.667,0,0,1,6.01-.262l7.1,5.942a3.754,3.754,0,0,0,6.16-2.867V49.429a3.75,3.75,0,0,1,7.5,0V79.367a3.745,3.745,0,0,0,3.286,3.714ZM101.678,60.55H67.988V49.429a11.25,11.25,0,0,0-22.5,0V60.55H26.322a18.783,18.783,0,1,1,0-37.565h75.356a18.783,18.783,0,1,1,0,37.565Z" fill="#fff"/><path d="M324.574,76.6,312.186,88.99l-4.864-4.864a3.762,3.762,0,1,0-5.32,5.32l7.524,7.524a3.762,3.762,0,0,0,5.32,0l15.048-15.048a3.762,3.762,0,0,0-5.32-5.32Z" transform="translate(-225.749 -44.951)" fill="#fff"/></g></g></svg>