<svg xmlns="http://www.w3.org/2000/svg" xmlns:xlink="http://www.w3.org/1999/xlink" width="287" height="261" viewBox="0 0 287 261"><defs><linearGradient id="a" y1="0.5" x2="1" y2="0.5" gradientUnits="objectBoundingBox"><stop offset="0" stop-color="#2575fc"/><stop offset="1" stop-color="#6a11cb"/></linearGradient></defs><g transform="translate(-2261 -1490)"><path d="M85,261q0-5.026.2-10H372V509.438A253.028,253.028,0,0,1,336,512C197.376,512,85,399.623,85,261Z" transform="translate(2176 1239)" fill="url(#a)"/><g transform="translate(2352.499 1549)"><path d="M222.845,334.315a2.415,2.415,0,1,0-3.415,0A2.417,2.417,0,0,0,222.845,334.315Zm0,0" transform="translate(-165.792 -250.886)" fill="#fff"/><path d="M188.449,26.548A26.548,26.548,0,1,0,215,0,26.579,26.579,0,0,0,188.449,26.548Zm48.27,0A21.722,21.722,0,1,1,215,4.827,21.746,21.746,0,0,1,236.719,26.548Zm0,0" transform="translate(-142.939)" fill="#fff"/><path d="M28.173,283.953a2.394,2.394,0,0,0,3.391.02l11.648-11.528a7.317,7.317,0,0,0,1.71-7.49l2.505-2.427a7.147,7.147,0,0,1,5-2.03H84.367a21.459,21.459,0,0,0,15.081-6.155c.167-.163-1.268,1.535,21.788-26.148a9.629,9.629,0,0,0-14.623-12.53L92.437,230.3a9.638,9.638,0,0,0-7.469-3.593H58.178A30.871,30.871,0,0,0,46.148,224.3c-11.569,0-21.67,5.368-27.091,15.432a7.155,7.155,0,0,0-6.425,2L1.2,253.243a2.422,2.422,0,0,0,0,3.4Zm17.973-54.83a26.123,26.123,0,0,1,10.576,2.211,2.389,2.389,0,0,0,.963.2H84.968a4.827,4.827,0,0,1,0,9.654h-19.6a2.413,2.413,0,0,0,0,4.826h19.6A9.642,9.642,0,0,0,94.493,235.1c13.714-14.161,15.647-16.151,15.73-16.25a4.815,4.815,0,1,1,7.337,6.237L96.012,250.966a16.688,16.688,0,0,1-11.645,4.7H52.429a11.916,11.916,0,0,0-8.339,3.384l-2.042,1.979L23.227,242.127c4.4-8.29,12.653-13.005,22.92-13.005ZM16.031,245.139a2.388,2.388,0,0,1,2.975-.339c.416.255-.778-.837,20.808,20.818a2.426,2.426,0,0,1,.013,3.4l-9.93,9.827-23.606-23.9Zm0,0" transform="translate(0 -161.666)" fill="#fff"/><path d="M270.768,42.4v2.828A7.24,7.24,0,0,0,273.182,59.3a2.413,2.413,0,0,1,0,4.826,4.365,4.365,0,0,1-3.134-1.826,2.414,2.414,0,0,0-3.695,3.106,10.01,10.01,0,0,0,4.415,3.143v2.817a2.413,2.413,0,1,0,4.826,0V68.536a7.24,7.24,0,0,0-2.413-14.066,2.414,2.414,0,0,1,0-4.827,3.875,3.875,0,0,1,2.61,1.262,2.414,2.414,0,0,0,3.357-3.468,9.324,9.324,0,0,0-3.554-2.222V42.4a2.413,2.413,0,1,0-4.826,0Zm0,0" transform="translate(-201.574 -30.335)" fill="#fff"/></g></g></svg>