<svg xmlns="http://www.w3.org/2000/svg" xmlns:xlink="http://www.w3.org/1999/xlink" width="287" height="261" viewBox="0 0 287 261"><defs><linearGradient id="a" x1="-0.261" x2="1.05" y2="1" gradientUnits="objectBoundingBox"><stop offset="0" stop-color="#2575fc"/><stop offset="1" stop-color="#6a11cb" stop-opacity="0.502"/></linearGradient></defs><g transform="translate(-1195 -1229)"><path d="M85,261q0-5.026.2-10H372V509.438A253.028,253.028,0,0,1,336,512C197.376,512,85,399.623,85,261Z" transform="translate(1110 978)" fill="url(#a)"/><g transform="translate(1286 1290)"><g transform="translate(0 0)"><path d="M8.4,71.4H66.33L79.514,84.585A4.2,4.2,0,0,0,86.584,80.7L84.518,71.4H88.2A8.4,8.4,0,0,0,96.6,63V8.4A8.4,8.4,0,0,0,88.2,0H8.4A8.4,8.4,0,0,0,0,8.4V63a8.4,8.4,0,0,0,8.4,8.4ZM4.2,8.4A4.2,4.2,0,0,1,8.4,4.2H88.2a4.2,4.2,0,0,1,4.2,4.2V63a4.2,4.2,0,0,1-4.2,4.2H84.518a4.2,4.2,0,0,0-4.1,5.111l2.066,9.3L69.3,68.43A4.223,4.223,0,0,0,66.33,67.2H8.4A4.2,4.2,0,0,1,4.2,63Z" transform="translate(0 0)" fill="#fff"/><path d="M8.1,10.2H18.6a2.1,2.1,0,1,0,0-4.2H8.1a2.1,2.1,0,0,0,0,4.2Z" transform="translate(6.6 6.6)" fill="#fff"/><path d="M17.1,10.2H65.4a2.1,2.1,0,1,0,0-4.2H17.1a2.1,2.1,0,1,0,0,4.2Z" transform="translate(16.5 6.6)" fill="#fff"/><path d="M8.1,25.2H56.4a2.1,2.1,0,1,0,0-4.2H8.1a2.1,2.1,0,0,0,0,4.2Z" transform="translate(6.6 23.1)" fill="#fff"/><path d="M8.1,30.2H18.6a2.1,2.1,0,1,0,0-4.2H8.1a2.1,2.1,0,1,0,0,4.2Z" transform="translate(6.6 28.599)" fill="#fff"/><path d="M65.4,26H17.1a2.1,2.1,0,1,0,0,4.2H65.4a2.1,2.1,0,1,0,0-4.2Z" transform="translate(16.5 28.599)" fill="#fff"/><path d="M45.6,11H35.1a2.1,2.1,0,0,0,0,4.2H45.6a2.1,2.1,0,1,0,0-4.2Z" transform="translate(36.299 12.1)" fill="#fff"/><path d="M45.6,21H35.1a2.1,2.1,0,0,0,0,4.2H45.6a2.1,2.1,0,1,0,0-4.2Z" transform="translate(36.299 23.1)" fill="#fff"/><path d="M47,39.1a2.1,2.1,0,0,0,2.1,2.1H59.6a2.1,2.1,0,0,0,0-4.2H49.1A2.1,2.1,0,0,0,47,39.1Z" transform="translate(51.699 40.699)" fill="#fff"/><path d="M8.1,15.2H56.4a2.1,2.1,0,1,0,0-4.2H8.1a2.1,2.1,0,0,0,0,4.2Z" transform="translate(6.6 12.1)" fill="#fff"/><path d="M8.1,20.2H18.6a2.1,2.1,0,1,0,0-4.2H8.1a2.1,2.1,0,0,0,0,4.2Z" transform="translate(6.6 17.6)" fill="#fff"/><path d="M65.4,16H17.1a2.1,2.1,0,1,0,0,4.2H65.4a2.1,2.1,0,1,0,0-4.2Z" transform="translate(16.5 17.6)" fill="#fff"/><path d="M50.1,26.2h8.4a2.1,2.1,0,0,0,0-4.2H50.1a2.1,2.1,0,0,0,0,4.2Z" transform="translate(52.799 24.199)" fill="#fff"/><path d="M45.914,39.1a2.1,2.1,0,0,0-2.1-2.1H22.1a2.1,2.1,0,0,0,0,4.2H43.814a2.1,2.1,0,0,0,2.1-2.1Z" transform="translate(22 40.699)" fill="#fff"/><path d="M22.1,42a2.1,2.1,0,0,0,0,4.2H32.6a2.1,2.1,0,0,0,0-4.2Z" transform="translate(22 46.199)" fill="#fff"/><path d="M41.07,44.1a2.1,2.1,0,0,0,2.1,2.1H66.123a2.1,2.1,0,0,0,0-4.2H43.17A2.1,2.1,0,0,0,41.07,44.1Z" transform="translate(45.176 46.199)" fill="#fff"/><path d="M31.1,46.2H44.687a2.1,2.1,0,0,0,0-4.2H31.1a2.1,2.1,0,0,0,0,4.2Z" transform="translate(31.899 46.199)" fill="#fff"/><path d="M50.1,31.2h8.4a2.1,2.1,0,0,0,0-4.2H50.1a2.1,2.1,0,0,0,0,4.2Z" transform="translate(52.799 29.699)" fill="#fff"/><path d="M47.32,34.1a2.1,2.1,0,0,0,2.1,2.1h9.828a2.1,2.1,0,1,0,0-4.2H49.42A2.1,2.1,0,0,0,47.32,34.1Z" transform="translate(52.051 35.199)" fill="#fff"/><path d="M102.2,16H87.5a2.1,2.1,0,0,0,0,4.2h14.7a4.2,4.2,0,0,1,4.2,4.2V79a4.2,4.2,0,0,1-4.2,4.2H98.524a4.2,4.2,0,0,0-4.108,5.12l2.064,9.292L83.3,84.426A4.2,4.2,0,0,0,80.338,83.2H22.4A4.2,4.2,0,0,1,18.2,79V60.1a2.1,2.1,0,0,0-4.2,0V79a8.4,8.4,0,0,0,8.4,8.4H80.324l13.188,13.188a4.2,4.2,0,0,0,7.081-3.874L98.524,87.4H102.2a8.4,8.4,0,0,0,8.4-8.4V24.4a8.4,8.4,0,0,0-8.4-8.4Z" transform="translate(15.4 17.6)" fill="#fff"/></g></g></g></svg>