<svg xmlns="http://www.w3.org/2000/svg" xmlns:xlink="http://www.w3.org/1999/xlink" width="287" height="261" viewBox="0 0 287 261"><defs><linearGradient id="a" y1="0.5" x2="1" y2="0.5" gradientUnits="objectBoundingBox"><stop offset="0" stop-color="#2575fc"/><stop offset="1" stop-color="#6a11cb"/></linearGradient></defs><g transform="translate(-1195 -703)"><path d="M85,261q0-5.026.2-10H372V509.438A253.028,253.028,0,0,1,336,512C197.376,512,85,399.623,85,261Z" transform="translate(1110 452)" fill="url(#a)"/><g transform="translate(1288 764)"><g transform="translate(45.205 51.515)"><path d="M206.387,238.325a1.545,1.545,0,0,1-1.567,1.567H194.737a1.581,1.581,0,0,1-1.14-2.734l8.431-7.634a3.688,3.688,0,0,0-4.673-5.7c-.629.456-1.152,1.277-1.957,1.416a1.588,1.588,0,0,1-1.744-1.047c-.4-1.137.577-1.818,1.309-2.479a6.727,6.727,0,0,1,4.586-1.766,6.858,6.858,0,0,1,5.07,2.25,6.726,6.726,0,0,1,1.766,4.586,6.859,6.859,0,0,1-2.25,5.07l-5.384,4.871h6.067A1.568,1.568,0,0,1,206.387,238.325Z" transform="translate(-193.094 -219.952)" fill="#fff"/><path d="M267.246,234.638a1.569,1.569,0,0,1-1.6,1.567h-.285v2.165a1.567,1.567,0,1,1-3.133,0V236.2h-8.916a1.572,1.572,0,0,1-1.282-2.535c.363-.451,10.42-12.986,10.539-13.1a2.477,2.477,0,0,1,.343-.3,1.581,1.581,0,0,1,2.45,1.3v11.508h.285A1.586,1.586,0,0,1,267.246,234.638Zm-5.013-8.6-5.668,7.036h5.668Z" transform="translate(-237.917 -219.997)" fill="#fff"/></g><path d="M110.632,41.189C106.352,17.122,84.106,0,60,0S13.648,17.123,9.367,41.189A11.058,11.058,0,0,0,0,52.071v5.82a1.759,1.759,0,0,0,3.516,0V52.07a7.55,7.55,0,0,1,7.582-7.5h3.668V81.045H11.1a7.549,7.549,0,0,1-7.582-7.5V66.8A1.759,1.759,0,0,0,0,66.8v6.749A11.069,11.069,0,0,0,11.1,84.561h3.856c1.63,6.086,10.962,4.889,10.962-1.424V42.479c0-6.3-9.329-7.521-10.962-1.424H12.971C17.288,19,37.849,3.516,60,3.516S102.712,19,107.029,41.055h-1.982c-1.63-6.086-10.962-4.888-10.962,1.424V83.137c0,6.3,9.329,7.522,10.962,1.424h1.959c-3.154,16.7-18.424,27.594-35.017,28.119a5.581,5.581,0,0,0-5.279-3.763H53.29a5.542,5.542,0,1,0,0,11.083H66.71A5.581,5.581,0,0,0,72,116.2c18.591-.548,35.439-13.038,38.6-31.764A11.059,11.059,0,0,0,120,73.545V52.071A11.058,11.058,0,0,0,110.632,41.189Zm-92.351,1.29c0-2.615,4.118-2.617,4.118,0V83.137c0,2.616-4.118,2.617-4.118,0ZM66.71,116.484H53.29a2.026,2.026,0,0,1,0-4.052H66.71A2.026,2.026,0,0,1,66.71,116.484Zm35.009-33.347c0,2.616-4.118,2.617-4.118,0V42.479c0-2.615,4.118-2.617,4.118,0Zm14.766-9.592a7.55,7.55,0,0,1-7.582,7.5h-3.668V44.57H108.9a7.55,7.55,0,0,1,7.582,7.5Z" fill="#fff"/><path d="M170.4,195.622l10.608,4.673a1.783,1.783,0,0,0,2.475-1.614v-11.8a28.7,28.7,0,0,0,1.533-35.449,1.765,1.765,0,0,0-2.865,2.059,25.178,25.178,0,0,1-1.744,31.547,1.765,1.765,0,0,0-.452,1.179v9.763l-8.761-3.86a1.764,1.764,0,0,0-1.3-.049,25.355,25.355,0,1,1,6.007-44.713,1.765,1.765,0,0,0,2-2.9,28.906,28.906,0,1,0-7.505,51.17Z" transform="translate(-101.281 -106.76)" fill="#fff"/></g></g></svg>