<svg xmlns="http://www.w3.org/2000/svg" width="1440.733" height="137" viewBox="0 0 1440.733 137"><g transform="translate(3.543 -44)"><g transform="translate(-2 44)"><path d="M0,0C90.728.928,147.913,27.188,291.91,59.912q144,32.724,467.09,22.821Q324.5,193.015,0,74.973" fill="#fff" opacity="0.1"/><path d="M100,104.708Q366.119,56,546.2,45.579t432.8,9.5q-71.895,1.572-362.3,56.169T100,104.708Z" fill="#fff" opacity="0.1"/><path d="M1046,51.652c84.83-22.323,233.08-34.044,393-11.486V120Q1187.255,56.915,1046,51.652Z" fill="#fff" opacity="0.2"/></g><g transform="translate(-4 76)"><path d="M.457,34.035Q85.4,62.78,123.822,71.865C181.454,85.5,234.295,90.29,272.033,93.459c39.322,3.3,124.6,2.342,188.992-1.8q38.6-2.479,95.9-10.911,58.231-9.234,79.873-13.761C663.913,61.324,712.5,49.5,727.6,46.128c52.865-11.811,91.234-23.6,128.719-30.224C922.689,4.169,955.676,2.522,1011.18.432Q1085.46,2,1121.24,5.387c40.46,3.832,87.38,12.434,114.16,16.917q75.675,12.666,205.49,50.05l.3,32L1.121,104.031Z" fill="#fff"/></g></g></svg>